<svg width="36" height="29" viewBox="0 0 36 29" fill="none" xmlns="http://www.w3.org/2000/svg">
<path d="M28.5 13.2H10.71L16.155 7.96801C16.4096 7.72295 16.5321 7.40701 16.4955 7.0897C16.459 6.77239 16.2663 6.47969 15.96 6.27601C15.6537 6.07232 15.2588 5.97433 14.8621 6.00358C14.4655 6.03284 14.0996 6.18695 13.845 6.43201L6.345 13.632C6.29454 13.6893 6.24942 13.7494 6.21 13.812C6.21 13.872 6.21 13.908 6.105 13.968C6.03701 14.1056 6.00141 14.2521 6 14.4C6.00141 14.548 6.03701 14.6944 6.105 14.832C6.105 14.892 6.105 14.928 6.21 14.988C6.24942 15.0506 6.29454 15.1107 6.345 15.168L13.845 22.368C13.986 22.5035 14.1626 22.6124 14.3623 22.6871C14.5619 22.7617 14.7796 22.8003 15 22.8C15.3505 22.8006 15.6901 22.7029 15.96 22.524C16.1119 22.4233 16.2374 22.2995 16.3295 22.1599C16.4215 22.0203 16.4782 21.8675 16.4963 21.7104C16.5144 21.5532 16.4936 21.3947 16.435 21.244C16.3765 21.0933 16.2813 20.9533 16.155 20.832L10.71 15.6H28.5C28.8978 15.6 29.2794 15.4736 29.5607 15.2485C29.842 15.0235 30 14.7183 30 14.4C30 14.0817 29.842 13.7765 29.5607 13.5515C29.2794 13.3264 28.8978 13.2 28.5 13.2Z" fill="#4C4C4C"/>
</svg>
