<svg width="200" height="120" viewBox="0 0 200 120" fill="none" xmlns="http://www.w3.org/2000/svg">
<g clip-path="url(#clip0_2_10)">
<path d="M197.407 24.806C194.268 22.9953 189.539 25.3333 186.827 30.0449C184.118 34.7276 184.465 40.0198 187.599 41.8328C190.72 43.6503 195.461 41.3033 198.177 36.6073C200.882 31.909 200.537 26.6324 197.407 24.806Z" fill="white"/>
<path d="M189.392 80.2509V60.1965C189.392 54.733 188.762 51.6453 187.072 48.8134C184.607 44.4533 180.331 42.4089 174.334 42.4089C167.489 42.4089 162.602 44.8782 158.762 50.3439L158.72 50.2972V44.0551L140.027 44.0529V46.9671L140.536 46.976C146.095 47.0694 146.714 47.69 146.714 55.2135V80.2486C146.714 88.1369 146.189 88.6641 140.367 88.7553H139.942V91.9587L165.551 91.9632V88.7576H165.038C159.305 88.6641 158.775 88.2281 158.775 80.2509V62.1764C158.775 59.2911 159.739 55.6873 161.142 53.138C163.334 49.3807 166.426 47.4409 169.994 47.4409C175.09 47.4409 177.422 50.9646 177.422 60.7304V80.2509C177.422 88.0479 176.801 88.6641 171.166 88.7576H170.648V91.9632H196.257V88.7576H195.75C189.921 88.6641 189.392 88.1369 189.392 80.2509Z" fill="white"/>
<path d="M31.8801 42.8561C28.7346 42.8561 26.0896 43.4745 23.7961 44.7981V49.2873C25.5335 47.5766 27.6201 46.6223 29.7534 46.6223C35.4728 46.6223 40.8718 53.5918 40.8718 68.1671C40.8718 82.7268 35.3126 89.6385 29.3219 89.6385C19.6006 89.6385 19.4315 80.3287 19.0422 78.0196C19.0422 78.0196 18.9821 24.2655 19.0422 23.1421H0V26.2542H0.516098C6.33109 26.2542 6.82271 27.6624 6.82271 35.3015V74.3558C6.82271 89.6096 22.7617 92.784 28.7702 92.784C42.3289 92.784 53.6741 82.8914 53.6741 66.6588C53.6741 51.7677 44.3866 42.8561 31.8801 42.8561Z" fill="white"/>
<path d="M118.767 43.5101C113.288 43.5101 109.386 45.1763 105.633 48.9803V44.0863L86.6242 44.1085V47.8969C91.387 47.9637 93.0643 48.5421 93.3113 53.3649V110.643C93.0932 115.374 92.0121 115.708 87.1159 115.848L86.6242 115.866V119.003H112.371V115.866L111.875 115.848C108.053 115.708 106.381 115.488 105.653 113.702V61.5513C106.941 52.395 110.601 47.3808 115.931 47.3808C121.659 47.3808 125.073 54.1813 125.073 68.4763C125.073 83.1873 121.501 89.861 114.874 89.861C113.484 89.861 112.122 89.4361 110.887 88.6775V92.5082C112.683 93.0977 114.609 93.3602 116.907 93.3602C123.056 93.3602 128.791 90.9176 132.283 86.6087C135.831 82.2485 137.889 75.1922 137.889 67.2372C137.889 52.2704 131.017 43.5101 118.767 43.5101Z" fill="white"/>
<path d="M74.3002 66.0382C74.3269 65.9114 74.338 65.8224 74.338 65.7067V47.9303H83.2518V44.0707H74.338V30.0515H69.2282L69.1459 30.4964C68.3517 34.9011 67.4908 37.3859 65.9492 39.7906C64.0094 42.8316 60.726 44.0863 56.982 44.2553L55.0889 44.2776V47.9303H61.5468V63.7669L61.5646 64.283C61.5468 78.6514 61.1264 83.0605 63.827 86.5152C66.0849 89.396 70.4984 93.2779 80.1352 93.2779C82.4176 93.2779 84.3596 93.0131 86.1504 92.4259V88.5952C84.9247 89.3426 83.5566 89.7631 82.1662 89.7631C74.1556 89.7631 74.3002 85.2628 74.3002 66.0382Z" fill="white"/>
<path d="M131.282 11.1228C131.765 10.3598 132.33 9.728 132.968 9.19411C133.656 8.65354 134.428 8.24645 135.304 7.95948C136.181 7.64804 137.153 7.50122 138.194 7.50122C139.311 7.50122 140.329 7.65916 141.248 8.00842C142.225 8.33765 143.052 8.8493 143.733 9.53224C144.456 10.2085 144.994 11.0249 145.357 12.0104C145.76 12.9803 145.96 14.0859 145.96 15.325V28.8481C145.96 29.1128 145.715 29.3375 145.453 29.3375H144.663C144.389 29.3375 144.165 29.1128 144.165 28.8481V15.4451C144.165 14.3039 143.993 13.3629 143.686 12.6221C143.373 11.8391 142.919 11.2073 142.387 10.7402C141.86 10.2352 141.21 9.8726 140.505 9.66126C139.793 9.40989 139.021 9.27864 138.194 9.27864C137.039 9.27864 136.054 9.50777 135.213 9.94601C134.343 10.3598 133.62 10.9448 133.04 11.6812C132.463 12.3863 132.039 13.2183 131.727 14.2038C131.431 15.1782 131.282 16.2215 131.282 17.3182V28.8481C131.282 29.1128 131.051 29.3375 130.786 29.3375H129.983C129.734 29.3375 129.5 29.1128 129.5 28.8481V8.46445C129.5 8.20863 129.734 7.97283 129.983 7.97283H130.786C131.051 7.97283 131.282 8.20863 131.282 8.46445" fill="white"/>
<path d="M88.3905 25.4156V28.8503C88.3905 29.115 88.1481 29.3441 87.8856 29.3441H87.0958C86.8311 29.3441 86.602 29.115 86.602 28.8503V0.547253C86.602 0.278082 86.8311 0.0489502 87.0958 0.0489502H87.8856C88.1481 0.0489502 88.3905 0.278082 88.3905 0.547253V11.779C88.9066 10.8381 89.6118 10.0105 90.4705 9.312C91.9743 8.09962 93.8785 7.50344 96.132 7.50344C97.6002 7.50344 98.9305 7.80598 100.089 8.43331C101.24 9.04728 102.192 9.86814 102.955 10.9115C103.733 11.937 104.307 13.1271 104.701 14.4641C105.11 15.8122 105.319 17.2225 105.319 18.6974C105.319 20.2702 105.11 21.7273 104.701 23.0931C104.283 24.4279 103.675 25.6091 102.861 26.6235C102.074 27.5956 101.106 28.3765 99.9516 28.937C98.8304 29.5021 97.5446 29.7779 96.132 29.7779C93.9519 29.7779 92.0744 29.1862 90.5506 27.9649C89.663 27.2419 88.9422 26.3899 88.3905 25.4156ZM88.9178 22.3123C89.2759 23.458 89.7675 24.439 90.4127 25.2954C91.0934 26.1297 91.9031 26.8081 92.8708 27.2998C93.8184 27.7936 94.9174 28.0361 96.132 28.0361C97.4 28.0361 98.4611 27.7803 99.3487 27.2998C100.29 26.8081 101.048 26.143 101.631 25.3155C102.263 24.4279 102.734 23.429 103.037 22.2923C103.366 21.1555 103.526 19.9498 103.526 18.6974C103.526 17.5495 103.373 16.4217 103.066 15.2983C102.779 14.1504 102.343 13.1538 101.747 12.2751C101.159 11.3942 100.394 10.6712 99.451 10.1217C98.5634 9.5745 97.46 9.28086 96.132 9.28086C93.7762 9.28086 91.9298 10.0906 90.5261 11.6945C89.1135 13.2673 88.3905 15.5764 88.3905 18.6974C88.3905 19.9699 88.564 21.1778 88.9178 22.3123Z" fill="white"/>
<path d="M122.991 26.1274L122.773 26.4255C122.282 27.0906 121.657 27.6535 120.911 28.1651C120.177 28.6768 119.341 29.0661 118.402 29.3308C117.445 29.6422 116.424 29.8024 115.321 29.8024C113.185 29.8024 111.419 29.3174 110.071 28.3453C108.683 27.322 108.007 25.7782 108.007 23.8206C108.007 22.5103 108.211 21.4091 108.656 20.546C109.123 19.7185 109.717 19.04 110.436 18.5795C111.174 18.0767 111.98 17.7675 112.887 17.594C113.762 17.4027 114.618 17.2848 115.483 17.2247L119.098 17.0423C120.084 16.9511 120.856 16.8265 121.445 16.6597C122.035 16.4639 122.404 16.2081 122.624 15.9212C122.847 15.6097 122.991 15.1359 122.991 14.4263C122.991 13.8501 122.945 13.245 122.847 12.611C122.755 12.0326 122.509 11.4987 122.128 11.0049C121.799 10.5333 121.276 10.1329 120.553 9.81252C119.841 9.47661 118.858 9.29865 117.539 9.29865C115.47 9.29865 113.946 9.81252 112.874 10.7646C111.811 11.6811 111.188 13.0181 111.061 14.8267C111.036 15.0714 110.798 15.2783 110.567 15.2783H109.775C109.49 15.2783 109.257 15.0447 109.281 14.7644C109.324 13.7611 109.53 12.8179 109.9 11.937C110.28 11.0383 110.805 10.2441 111.497 9.59007C112.207 8.93382 113.059 8.4244 114.037 8.06402C115.061 7.69697 116.224 7.51011 117.539 7.51011C118.482 7.51011 119.361 7.60576 120.188 7.81042C121.078 8.00618 121.846 8.36211 122.52 8.88043C123.198 9.38318 123.725 10.0394 124.13 10.8403C124.531 11.67 124.749 12.6689 124.784 13.839V28.8614C124.784 29.1239 124.531 29.353 124.279 29.353H123.49C123.223 29.353 122.991 29.1239 122.991 28.8614M122.991 17.921C122.795 18.0412 122.575 18.1457 122.348 18.2302C121.761 18.426 121.094 18.5795 120.353 18.6885C119.625 18.7997 118.825 18.8709 117.948 18.8932C117.136 18.9221 116.346 18.9554 115.546 19.02C114.78 19.0645 114.015 19.1668 113.277 19.318C112.598 19.4382 111.993 19.6851 111.472 20.0433C110.97 20.3525 110.567 20.8218 110.256 21.4381C109.958 21.992 109.784 22.7928 109.784 23.8206C109.784 24.35 109.877 24.8728 110.038 25.4044C110.22 25.8849 110.514 26.3076 110.945 26.7191C111.359 27.0906 111.902 27.411 112.598 27.6913C113.292 27.9271 114.171 28.0583 115.243 28.0583C116.502 28.0583 117.603 27.8381 118.573 27.4177C119.548 26.995 120.353 26.4455 120.989 25.7848C121.657 25.0952 122.139 24.3011 122.48 23.4157C122.822 22.5103 122.991 21.596 122.991 20.6617V17.921Z" fill="white"/>
<path d="M167.433 28.9415L158.202 16.1436L165.32 8.6869C165.32 8.6869 165.594 8.41328 165.574 8.27091C165.558 8.18637 165.438 8.09294 165.345 8.09294C165.345 8.09294 163.93 8.11741 163.814 8.11741C163.32 8.11741 163.027 8.47779 163.027 8.47779L152.469 19.0044V0.498306C152.469 0.233585 152.237 5.72205e-06 151.973 5.72205e-06H151.012C150.745 5.72205e-06 150.52 0.233585 150.52 0.498306V28.8481C150.52 29.1105 150.745 29.3419 151.012 29.3419H151.973C152.237 29.3419 152.469 29.1105 152.469 28.8481V21.6004L156.684 17.5384L164.78 29.0082C164.913 29.1995 165.042 29.3219 165.447 29.3219C165.836 29.3219 167.169 29.3108 167.169 29.3108C167.247 29.3108 167.409 29.2396 167.456 29.1662C167.489 29.0928 167.482 29.0038 167.433 28.9415Z" fill="white"/>
</g>
<defs>
<clipPath id="clip0_2_10">
<rect width="200" height="119.003" fill="white"/>
</clipPath>
</defs>
</svg>
